<svg width="15" height="15" viewBox="0 0 15 15" fill="none" xmlns="http://www.w3.org/2000/svg">
<path d="M3.125 3.125H6.875C7.21875 3.125 7.5 2.84375 7.5 2.5C7.5 2.15625 7.21875 1.875 6.875 1.875H3.125C2.4375 1.875 1.875 2.4375 1.875 3.125V11.875C1.875 12.5625 2.4375 13.125 3.125 13.125H6.875C7.21875 13.125 7.5 12.8438 7.5 12.5C7.5 12.1562 7.21875 11.875 6.875 11.875H3.125V3.125Z" fill="black"/>
<path d="M12.9062 7.28121L11.1625 5.53746C11.119 5.49281 11.0632 5.46214 11.0022 5.44938C10.9412 5.43662 10.8778 5.44236 10.8201 5.46585C10.7624 5.48934 10.713 5.52952 10.6782 5.58125C10.6435 5.63297 10.6249 5.6939 10.625 5.75621V6.87496H6.25C5.90625 6.87496 5.625 7.15621 5.625 7.49996C5.625 7.84371 5.90625 8.12496 6.25 8.12496H10.625V9.24371C10.625 9.52496 10.9625 9.66246 11.1562 9.46246L12.9 7.71871C13.025 7.59996 13.025 7.39996 12.9062 7.28121Z" fill="black"/>
</svg>
