<svg width="63" height="35" viewBox="0 0 63 35" fill="none" xmlns="http://www.w3.org/2000/svg">
<g clip-path="url(#clip0_71_46)">
<path d="M6.8355 6.94026H12.7512L6.2433 27.9962H0L6.8355 6.94026Z" fill="#019D7E"/>
<path d="M23.8832 27.8309C24.7274 26.9793 24.9542 25.4603 24.2108 24.5133L18.7991 17.9481C18.6164 17.7129 18.6794 17.3125 18.9188 17.1409L28.0412 10.9379C29.1752 10.1625 29.4146 8.57363 28.5578 7.49319L28.1924 7.02924C27.4175 6.05048 26.0126 5.8471 24.9983 6.57164L13.1669 14.7385C12.0581 15.5266 11.6738 17.4968 12.5243 18.5646C12.5243 18.5646 18.1439 26.026 20.1095 27.9009C21.5963 29.3181 22.8626 28.8669 23.8832 27.8309Z" fill="#019D7E"/>
<path d="M34.9397 6.94026H40.8554L34.3475 27.9962H28.1042L34.9397 6.94026Z" fill="#019D7E"/>
<path d="M57.0843 6.94026H63L56.4921 27.9962H50.2488L57.0843 6.94026Z" fill="#019D7E"/>
<path d="M50.3999 0C52.3151 0 53.6759 1.87489 53.0963 3.718L43.1234 35H36.8801L47.7161 1.96386C48.0941 0.788088 49.1777 0 50.4062 0H50.3999Z" fill="#019D7E"/>
</g>
<defs>
<clipPath id="clip0_71_46">
<rect width="63" height="35" fill="white"/>
</clipPath>
</defs>
</svg>
