<svg width="40" height="40" viewBox="0 0 40 40" fill="none" xmlns="http://www.w3.org/2000/svg">
<path d="M16.8749 36.6666C16.8749 37.4954 17.2042 38.2903 17.7902 38.8764C18.3763 39.4624 19.1711 39.7916 19.9999 39.7916C20.8287 39.7916 21.6236 39.4624 22.2096 38.8764C22.7957 38.2903 23.1249 37.4954 23.1249 36.6666V23.125H36.6666C37.4954 23.125 38.2902 22.7957 38.8763 22.2097C39.4623 21.6236 39.7916 20.8288 39.7916 20C39.7916 19.1712 39.4623 18.3763 38.8763 17.7903C38.2902 17.2042 37.4954 16.875 36.6666 16.875H23.1249V3.33331C23.1249 2.50451 22.7957 1.70966 22.2096 1.1236C21.6236 0.537553 20.8287 0.208313 19.9999 0.208313C19.1711 0.208313 18.3763 0.537553 17.7902 1.1236C17.2042 1.70966 16.8749 2.50451 16.8749 3.33331V16.875H3.33325C2.50445 16.875 1.70959 17.2042 1.12354 17.7903C0.537492 18.3763 0.208252 19.1712 0.208252 20C0.208252 20.8288 0.537492 21.6236 1.12354 22.2097C1.70959 22.7957 2.50445 23.125 3.33325 23.125H16.8749V36.6666Z" fill="black"/>
</svg>
